<svg width="680" height="680" viewBox="0 0 680 680" xmlns="http://www.w3.org/2000/svg">
<rect width="680" height="680" fill="#0F0E0C"/>

<g transform="translate(340, 300)">
  <ellipse cx="0" cy="0" rx="195" ry="195" fill="none" stroke="#C17E4A" stroke-width="1.5"/>
  <ellipse cx="0" cy="0" rx="178" ry="178" fill="none" stroke="#C17E4A" stroke-width="0.5" opacity="0.4"/>

  <path d="M -140 0 A 140 140 0 0 1 140 0" fill="none" stroke="#C17E4A" stroke-width="0.5" opacity="0.3"/>

  <polygon points="0,-98 11,-30 80,-30 24,12 44,80 0,38 -44,80 -24,12 -80,-30 -11,-30" fill="none" stroke="#C17E4A" stroke-width="1" opacity="0.15"/>

  <rect x="-52" y="-72" width="104" height="130" rx="6" fill="none" stroke="#C17E4A" stroke-width="1.2" opacity="0.6"/>
  <rect x="-52" y="-72" width="104" height="130" rx="6" fill="#C17E4A" opacity="0.05"/>

  <line x1="-35" y1="-45" x2="35" y2="-45" stroke="#C17E4A" stroke-width="2" stroke-linecap="round"/>
  <line x1="-35" y1="-25" x2="35" y2="-25" stroke="#C17E4A" stroke-width="2" stroke-linecap="round"/>
  <line x1="-35" y1="-5" x2="20" y2="-5" stroke="#C17E4A" stroke-width="2" stroke-linecap="round"/>
  <line x1="-35" y1="15" x2="35" y2="15" stroke="#C17E4A" stroke-width="2" stroke-linecap="round"/>
  <line x1="-35" y1="35" x2="20" y2="35" stroke="#C17E4A" stroke-width="2" stroke-linecap="round"/>

  <path d="M -52 58 L 0 80 L 52 58" fill="none" stroke="#C17E4A" stroke-width="1.2" stroke-linejoin="round"/>

  <path d="M -80 -100 Q -120 -80 -140 -40 Q -155 0 -140 40 Q -120 80 -80 100" fill="none" stroke="#C17E4A" stroke-width="1" opacity="0.5"/>
  <path d="M 80 -100 Q 120 -80 140 -40 Q 155 0 140 40 Q 120 80 80 100" fill="none" stroke="#C17E4A" stroke-width="1" opacity="0.5"/>

  <path d="M -75 -95 Q -95 -75 -100 -50" fill="none" stroke="#C17E4A" stroke-width="0.8" opacity="0.4"/>
  <path d="M -65 -102 Q -88 -85 -95 -60" fill="none" stroke="#C17E4A" stroke-width="0.8" opacity="0.3"/>
  <path d="M 75 -95 Q 95 -75 100 -50" fill="none" stroke="#C17E4A" stroke-width="0.8" opacity="0.4"/>
  <path d="M 65 -102 Q 88 -85 95 -60" fill="none" stroke="#C17E4A" stroke-width="0.8" opacity="0.3"/>

  <path d="M -75 95 Q -95 75 -100 50" fill="none" stroke="#C17E4A" stroke-width="0.8" opacity="0.4"/>
  <path d="M -65 102 Q -88 85 -95 60" fill="none" stroke="#C17E4A" stroke-width="0.8" opacity="0.3"/>
  <path d="M 75 95 Q 95 75 100 50" fill="none" stroke="#C17E4A" stroke-width="0.8" opacity="0.4"/>
  <path d="M 65 102 Q 88 85 95 60" fill="none" stroke="#C17E4A" stroke-width="0.8" opacity="0.3"/>

  <circle cx="-195" cy="0" r="3" fill="#C17E4A" opacity="0.6"/>
  <circle cx="195" cy="0" r="3" fill="#C17E4A" opacity="0.6"/>
  <line x1="-185" y1="0" x2="-90" y2="0" stroke="#C17E4A" stroke-width="0.5" opacity="0.4"/>
  <line x1="90" y1="0" x2="185" y2="0" stroke="#C17E4A" stroke-width="0.5" opacity="0.4"/>
</g>

<text x="340" y="480" text-anchor="middle" font-family="Georgia, serif" font-size="48" font-weight="700" fill="#EDE8E0" letter-spacing="12">COLLEX</text>

<line x1="220" y1="500" x2="305" y2="500" stroke="#C17E4A" stroke-width="0.5" opacity="0.5"/>
<circle cx="340" cy="500" r="2.5" fill="#C17E4A"/>
<line x1="375" y1="500" x2="460" y2="500" stroke="#C17E4A" stroke-width="0.5" opacity="0.5"/>

<text x="340" y="525" text-anchor="middle" font-family="Georgia, serif" font-size="11" fill="#C17E4A" letter-spacing="5" opacity="0.8">FIND YOUR COLLEGE INSIGHTS</text>
</svg>
